# xmcd
#
# Track frame offsets: 
#        150
#        21150
#        33667
#        49217
#        67705
#        85772
#        100565
#        119312
#        137880
#        155662
#        172087
#        188842
#        207692
#        221457
#        245387
#
# Disc length: 3427 seconds
#
# Revision: 2
# Processed by: cddbd v1.5.2PL0 Copyright (c) Steve Scherf et al.
# Submitted via: ExactAudioCopy v0.99pb5
#
DISCID=d30d610f
DTITLE=Anna Nalick - Wreck of the Day
DYEAR=2006
DGENRE=Pop-Folk
TTITLE0=Breathe (2 AM)
TTITLE1=Citadel
TTITLE2=Paper Bag
TTITLE3=Wreck of the Day
TTITLE4=Satellite
TTITLE5=Forever Love (Digame)
TTITLE6=In the Rough
TTITLE7=In My Head
TTITLE8=Bleed
TTITLE9=Catalyst
TTITLE10=Consider This
TTITLE11=Wreck of the Day ('06)
TTITLE12=Drink Me (Demo Version)
TTITLE13=Soldier (Demo Version)
TTITLE14=More Than Melody (Demo Version)
EXTD=Phillip McKeen YEAR: 2006
EXTT0=
EXTT1=
EXTT2=
EXTT3=
EXTT4=
EXTT5=
EXTT6=
EXTT7=
EXTT8=
EXTT9=
EXTT10=
EXTT11=
EXTT12=
EXTT13=
EXTT14=
PLAYORDER=
